HIERARCHY
ROOT Root
{
	OFFSET 0.00000 0.00000 0.00000
	CHANNELS 6 Xposition Yposition Zposition Zrotation Xrotation Yrotation
	JOINT Hip
	{
		OFFSET 0 0 0	
		CHANNELS 3 Zrotation Xrotation Yrotation
		JOINT Tummy
		{
			OFFSET 0 0.04 0	
			CHANNELS 3 Zrotation Xrotation Yrotation
			JOINT ChestBottom
			{
				OFFSET 0 0.194 0	
				CHANNELS 3 Zrotation Xrotation Yrotation
				JOINT ChestTop
				{
					OFFSET 0 0.166 0	
					CHANNELS 3 Zrotation Xrotation Yrotation
					JOINT LeftCollar
					{
						OFFSET 0 0.1 0	
						CHANNELS 3 Zrotation Xrotation Yrotation
						JOINT LeftUpperArm
						{
							OFFSET 0.156 -0.02 0.03	
							CHANNELS 3 Zrotation Xrotation Yrotation
							JOINT LeftForeArm
							{
								OFFSET 0.035 -0.27 -0.01	
								CHANNELS 3 Zrotation Xrotation Yrotation
								JOINT LeftHand
								{
									OFFSET 0.01 -0.27 0.01	
									CHANNELS 3 Zrotation Xrotation Yrotation
									End Site
									{
										OFFSET 0 -0.15 0
									}
								}
							}
						}
					}
					JOINT RightCollar
					{
						OFFSET 0 0.1 0	
						CHANNELS 3 Zrotation Xrotation Yrotation
						JOINT RightUpperArm
						{
							OFFSET -0.156 -0.02 0.03	
							CHANNELS 3 Zrotation Xrotation Yrotation
							JOINT RightForeArm
							{
								OFFSET -0.035 -0.27 -0.01	
								CHANNELS 3 Zrotation Xrotation Yrotation
								JOINT RightHand
								{
									OFFSET -0.01 -0.27 0.01	
									CHANNELS 3 Zrotation Xrotation Yrotation
									End Site
									{
										OFFSET 0 -0.15 0
									}
								}
							}
						}
					}
					JOINT Neck
					{
						OFFSET 0 0.1 0	
						CHANNELS 3 Zrotation Xrotation Yrotation
						JOINT Head
						{
							OFFSET 0 0.127 0.03	
							CHANNELS 3 Zrotation Xrotation Yrotation
							End Site
							{
								OFFSET 0 0.127 0.03
							}
						}
					}
				}
			}
		}
	}
	JOINT LeftHip
	{
		OFFSET 0 0 0	
		CHANNELS 3 Zrotation Xrotation Yrotation
		JOINT LeftThigh
		{
			OFFSET 0.088 -0.06 0	
			CHANNELS 3 Zrotation Xrotation Yrotation
			JOINT LeftLowerLeg
			{
				OFFSET 0 -0.39 0.02	
				CHANNELS 3 Zrotation Xrotation Yrotation
				JOINT LeftFootTop
				{
					OFFSET 0 -0.43 -0.02	
					CHANNELS 3 Zrotation Xrotation Yrotation
					JOINT LeftFootFront
					{
						OFFSET 0 -0.07 0.085	
						CHANNELS 3 Zrotation Xrotation Yrotation
						End Site
						{
							OFFSET 0 -0.005 0.09
						}
					}
				}
				JOINT LeftHeel
				{
					OFFSET 0 -0.43 -0.02	
					CHANNELS 3 Zrotation Xrotation Yrotation
					End Site
					{
						OFFSET 0 -0.075 -0.05
					}
				}
			}
		}
	}
	JOINT RightHip
	{
		OFFSET 0 0 0	
		CHANNELS 3 Zrotation Xrotation Yrotation
		JOINT RightThigh
		{
			OFFSET -0.088 -0.06 0	
			CHANNELS 3 Zrotation Xrotation Yrotation
			JOINT RightLowerLeg
			{
				OFFSET 0 -0.39 0.02	
				CHANNELS 3 Zrotation Xrotation Yrotation
				JOINT RightFootTop
				{
					OFFSET 0 -0.43 -0.02	
					CHANNELS 3 Zrotation Xrotation Yrotation
					JOINT RightFootFront
					{
						OFFSET 0 -0.07 0.085	
						CHANNELS 3 Zrotation Xrotation Yrotation
						End Site
						{
							OFFSET 0 -0.005 0.09
						}
					}
				}
				JOINT RightHeel
				{
					OFFSET 0 -0.43 -0.02	
					CHANNELS 3 Zrotation Xrotation Yrotation
					End Site
					{
						OFFSET 0 -0.075 -0.05
					}
				}
			}
		}
	}
}
MOTION
Frames: 9
Frame Time: 0.05
0.291 0.94493 -1.0397 -0 0 -0 -3.3558 2.3833 -99.308 0.85932 9.6596 6.3995 0.85933 9.6596 6.3995 0.79398 8.1086 5.3765 -0 0 -0 -10.524 -35.241 -13.28 -38.68 -2.6991 -7.5577 0.11672 0.2709 -0.25639 -0 0 -0 -5.618 -24.26 4.3371 13.103 -44.39 -4.5498 -0.15223 -1.5913 0.96134 -0 0 -0 -0 0 -0 -3.3558 2.3833 -99.308 3.1294 -7.5899 13.926 -0.10386 30.947 -2.9023 -0 0 -0 -1.525e-06 -17.221 1.3342e-06 -0 0 -0 -3.3558 2.3833 -99.308 38.416 -27.682 43.398 -20.577 30.129 -12.106 -0 0 -0 8.5377e-07 6.3611e-15 8.5377e-07 -0 0 -0 
0.29272 0.94162 -1.0449 -0 0 -0 -3.5803 2.573 -99.132 0.55203 9.9644 6.596 0.55203 9.9644 6.596 0.5409 8.3669 5.5373 -0 0 -0 -10.101 -34.41 -7.9611 -39.978 0.48728 -10.137 0.20541 -0.32584 -0.88245 -0 0 -0 -5.8531 -22.208 -0.16788 18.62 -45.93 -6.1971 -0.30173 -0.98587 2.5036 -0 0 -0 -0 0 -0 -3.5803 2.573 -99.132 4.4756 -9.4203 16.328 1.2228 34.25 -5.685 -0 0 -0 1.2533e-06 -18.263 2.4173e-06 -0 0 -0 -3.5803 2.573 -99.132 39.457 -28.466 45.933 -25.989 36.179 -10.494 -0 0 -0 -8.5377e-07 -9.9392e-15 1.334e-06 -0 0 -0 
0.29675 0.94017 -1.0514 -0 0 -0 -2.9196 3.5771 -99.884 0.66502 9.5414 7.2959 0.66502 9.5414 7.2959 0.64029 8.0103 6.1261 -0 0 -0 -9.0448 -32.988 -6.9332 -41.928 0.68821 -10.502 0.1226 -0.7557 -0.19485 -0 0 -0 -6.8552 -19.364 -4.8713 23.393 -48.439 -4.0617 -0.6818 -0.47294 2.3683 -0 0 -0 -0 0 -0 -2.9196 3.5771 -99.884 6.6625 -11.149 19.42 3.2762 35.794 -8.9041 -0 0 -0 2.0022e-06 -18.447 1.6766e-06 -0 0 -0 -2.9196 3.5771 -99.884 39.712 -30.409 47.845 -26.811 41.777 -12.229 -0 0 -0 -0 0 6.4033e-07 -0 0 -0 
0.30191 0.94069 -1.0587 -0 0 -0 -2.0667 5.3967 -101.7 0.7237 9.0955 8.867 0.7237 9.0955 8.867 0.70264 7.6343 7.4451 -0 0 -0 -6.1886 -33.163 -10.819 -45.487 -2.8508 -7.2045 -0.41244 -0.61264 1.3722 -0 0 -0 -8.1358 -17.446 -10.114 25.943 -50.982 -0.22205 -0.52665 -0.28136 0.90537 -0 0 -0 -0 0 -0 -2.0667 5.3967 -101.7 8.8323 -11.605 21.96 5.3506 35.26 -10.593 -0 0 -0 3.39e-07 -18.018 7.5906e-06 -0 0 -0 -2.0667 5.3967 -101.7 41.05 -32.777 49.356 -23.975 46.754 -16.044 -0 0 -0 0 0 -5.3361e-07 -0 0 -0 
0.30676 0.94278 -1.067 -0 0 -0 -1.3761 7.3681 -104.29 1.3937 8.7847 10.111 1.3937 8.7847 10.111 1.2745 7.3648 8.4963 -0 0 -0 -2.7146 -34.122 -12.264 -51.279 -7.3671 -1.0923 -0.16753 -0.52128 0.41821 -0 0 -0 -11.613 -15.884 -13.048 25.902 -53.789 1.8462 -0.057864 -0.021 -0.59322 -0 0 -0 -0 0 -0 -1.3761 7.3681 -104.29 11.344 -11.334 23.464 5.9984 34.441 -10.053 -0 0 -0 6.4216e-07 -17.383 4.2007e-06 -0 0 -0 -1.3761 7.3681 -104.29 39.237 -34.975 49.102 -12.87 47.866 -26.185 -0 0 -0 -0 0 7.2037e-07 -0 0 -0 
0.30992 0.94577 -1.0768 -0 0 -0 -0.52337 9.0947 -107.13 2.5334 8.1878 10.716 2.5334 8.1878 10.716 2.2299 6.8482 9.0155 -0 0 -0 1.8123 -34.094 -7.0813 -58.449 -9.9728 3.3936 0.24535 -0.51792 -0.35388 -0 0 -0 -16.155 -13.974 -13.513 24.572 -56.202 0.9968 -0.062418 0.2544 -0.76193 -0 0 -0 -0 0 -0 -0.52337 9.0947 -107.13 13.748 -10.99 23.618 5.4355 33.868 -7.1984 -0 0 -0 1.2421e-06 -16.802 2.5669e-06 -0 0 -0 -0.52337 9.0947 -107.13 35.291 -37.33 47.378 2.2669 44.451 -39.737 -0 0 -0 2.1344e-07 -2.6712e-16 -1.4341e-07 -0 0 -0 
0.31036 0.94885 -1.0886 -0 0 -0 1.6571 10.759 -109.99 3.9097 6.9784 11.186 3.9097 6.9784 11.186 3.3745 5.8129 9.4205 -0 0 -0 6.318 -33.064 1.048 -64.855 -10.985 6.3728 0.66603 -0.54349 -0.47546 -0 0 -0 -20.844 -11.872 -13.301 22.459 -57.667 -2.2497 -0.16934 0.45354 -0.56685 -0 0 -0 -0 0 -0 1.6571 10.759 -109.99 16.833 -11.101 25.132 5.269 32.977 -5.5504 -0 0 -0 1.597e-07 -16.405 -4.8763e-06 -0 0 -0 1.6571 10.759 -109.99 30.099 -40.208 44.208 16.601 37.613 -52.125 -0 0 -0 1.334e-07 1.4637e-15 1.2573e-06 -0 0 -0 
0.30761 0.95107 -1.1034 -0 0 -0 4.5961 12.376 -112.89 5.4071 5.59 11.83 5.4071 5.59 11.83 4.619 4.6228 9.9681 -0 0 -0 9.3592 -31.325 7.4375 -68.441 -13.214 9.01 0.7398 -0.20729 -0.42405 -0 0 -0 -25.693 -9.8825 -13.665 20.055 -57.71 -6.8203 -0.30043 0.54263 -0.2224 -0 0 -0 -0 0 -0 4.5961 12.376 -112.89 20.34 -11.062 28.209 6.0393 31.519 -6.208 -0 0 -0 -1.1558e-06 -16.093 -2.0765e-06 -0 0 -0 4.5961 12.376 -112.89 25.063 -42.479 43.384 29.36 28.922 -63.442 -0 0 -0 -0 0 1.3607e-06 -0 0 -0 
0.30185 0.95131 -1.122 -0 0 -0 6.712 13.476 -116.33 6.4359 4.7151 12.858 6.4359 4.7151 12.858 5.4778 3.8659 10.833 -0 0 -0 10.902 -29.213 10.83 -68.804 -17.31 10.999 0.55766 0.43491 0.023136 -0 0 -0 -29.506 -8.2174 -15.328 17.953 -56.33 -10.564 -0.1448 0.69221 -0.20825 -0 0 -0 -0 0 -0 6.712 13.476 -116.33 22.775 -9.5703 31.69 7.6924 29.6 -8.0345 -0 0 -0 -9.3202e-08 -16.079 -6.5985e-07 -0 0 -0 6.712 13.476 -116.33 18.255 -42.966 43.415 39.709 19.531 -72.658 -0 0 -0 0 0 -1.0672e-07 -0 0 -0 
